<svg xmlns="http://www.w3.org/2000/svg" xmlns:xlink="http://www.w3.org/1999/xlink" zoomAndPan="magnify" preserveAspectRatio="xMidYMid meet" version="1.0" viewBox="41.7 57.23 367.85 98.57"><defs><g/></defs><g fill="#faf6f5" fill-opacity="1"><g transform="translate(191.316172, 151.884324)"><g><path d="M 75.585938 -94.652344 L 0 -94.652344 L 37.859375 3.921875 Z M 37.859375 -38.671875 L 23.257812 -78.964844 L 52.328125 -78.964844 Z M 37.859375 -38.671875 "/></g></g></g><g fill="#ffffff" fill-opacity="1"><g transform="translate(257.465474, 136.335598)"><g><path d="M 40.53125 -16.234375 L 14.484375 -16.234375 C 14.484375 -13.710938 15.300781 -11.84375 16.9375 -10.625 C 18.570312 -9.414062 20.347656 -8.8125 22.265625 -8.8125 C 24.265625 -8.8125 25.847656 -9.082031 27.015625 -9.625 C 28.179688 -10.164062 29.515625 -11.226562 31.015625 -12.8125 L 39.96875 -8.328125 C 36.238281 -2.078125 30.03125 1.046875 21.34375 1.046875 C 15.9375 1.046875 11.296875 -0.804688 7.421875 -4.515625 C 3.546875 -8.222656 1.609375 -12.691406 1.609375 -17.921875 C 1.609375 -23.148438 3.546875 -27.628906 7.421875 -31.359375 C 11.296875 -35.085938 15.9375 -36.953125 21.34375 -36.953125 C 27.039062 -36.953125 31.671875 -35.304688 35.234375 -32.015625 C 38.804688 -28.734375 40.59375 -24.035156 40.59375 -17.921875 C 40.59375 -17.078125 40.570312 -16.515625 40.53125 -16.234375 Z M 14.84375 -23.09375 L 28.484375 -23.09375 C 28.203125 -24.96875 27.46875 -26.40625 26.28125 -27.40625 C 25.09375 -28.40625 23.566406 -28.90625 21.703125 -28.90625 C 19.648438 -28.90625 18.015625 -28.367188 16.796875 -27.296875 C 15.585938 -26.222656 14.9375 -24.820312 14.84375 -23.09375 Z M 14.84375 -23.09375 "/></g></g></g><g fill="#ffffff" fill-opacity="1"><g transform="translate(299.668788, 136.335598)"><g><path d="M 4.203125 0 L 4.203125 -35.90625 L 16.59375 -35.90625 L 16.59375 -30.734375 L 16.734375 -30.734375 C 16.828125 -30.921875 16.976562 -31.148438 17.1875 -31.421875 C 17.394531 -31.703125 17.847656 -32.191406 18.546875 -32.890625 C 19.242188 -33.597656 19.988281 -34.226562 20.78125 -34.78125 C 21.582031 -35.34375 22.613281 -35.84375 23.875 -36.28125 C 25.132812 -36.726562 26.414062 -36.953125 27.71875 -36.953125 C 29.070312 -36.953125 30.398438 -36.765625 31.703125 -36.390625 C 33.015625 -36.023438 33.972656 -35.65625 34.578125 -35.28125 L 35.5625 -34.71875 L 30.375 -24.21875 C 28.832031 -25.53125 26.6875 -26.1875 23.9375 -26.1875 C 22.445312 -26.1875 21.164062 -25.859375 20.09375 -25.203125 C 19.019531 -24.546875 18.257812 -23.75 17.8125 -22.8125 C 17.375 -21.882812 17.0625 -21.09375 16.875 -20.4375 C 16.6875 -19.78125 16.59375 -19.269531 16.59375 -18.90625 L 16.59375 0 Z M 4.203125 0 "/></g></g></g><g fill="#ffffff" fill-opacity="1"><g transform="translate(334.523268, 136.335598)"><g><path d="M 19.8125 -36.953125 C 21.863281 -36.953125 23.890625 -36.71875 25.890625 -36.25 C 27.898438 -35.789062 29.394531 -35.328125 30.375 -34.859375 L 31.84375 -34.15625 L 27.796875 -26.046875 C 24.992188 -27.535156 22.332031 -28.28125 19.8125 -28.28125 C 18.40625 -28.28125 17.410156 -28.128906 16.828125 -27.828125 C 16.242188 -27.523438 15.953125 -26.953125 15.953125 -26.109375 C 15.953125 -25.921875 15.972656 -25.734375 16.015625 -25.546875 C 16.066406 -25.359375 16.160156 -25.179688 16.296875 -25.015625 C 16.441406 -24.859375 16.570312 -24.722656 16.6875 -24.609375 C 16.8125 -24.492188 17.007812 -24.363281 17.28125 -24.21875 C 17.5625 -24.082031 17.785156 -23.976562 17.953125 -23.90625 C 18.117188 -23.832031 18.382812 -23.722656 18.75 -23.578125 C 19.125 -23.441406 19.40625 -23.335938 19.59375 -23.265625 C 19.78125 -23.203125 20.09375 -23.097656 20.53125 -22.953125 C 20.976562 -22.816406 21.320312 -22.726562 21.5625 -22.6875 C 23.007812 -22.257812 24.269531 -21.789062 25.34375 -21.28125 C 26.414062 -20.769531 27.546875 -20.066406 28.734375 -19.171875 C 29.921875 -18.285156 30.84375 -17.164062 31.5 -15.8125 C 32.15625 -14.46875 32.484375 -12.929688 32.484375 -11.203125 C 32.484375 -3.035156 26.8125 1.046875 15.46875 1.046875 C 12.90625 1.046875 10.46875 0.648438 8.15625 -0.140625 C 5.84375 -0.929688 4.175781 -1.722656 3.15625 -2.515625 L 1.609375 -3.78125 L 6.65625 -12.25 C 7.019531 -11.925781 7.503906 -11.539062 8.109375 -11.09375 C 8.722656 -10.65625 9.820312 -10.050781 11.40625 -9.28125 C 13 -8.507812 14.378906 -8.125 15.546875 -8.125 C 18.109375 -8.125 19.390625 -8.984375 19.390625 -10.703125 C 19.390625 -11.503906 19.0625 -12.125 18.40625 -12.5625 C 17.757812 -13.007812 16.648438 -13.507812 15.078125 -14.0625 C 13.515625 -14.625 12.289062 -15.140625 11.40625 -15.609375 C 9.164062 -16.773438 7.390625 -18.09375 6.078125 -19.5625 C 4.773438 -21.03125 4.125 -22.976562 4.125 -25.40625 C 4.125 -29.050781 5.535156 -31.882812 8.359375 -33.90625 C 11.179688 -35.9375 15 -36.953125 19.8125 -36.953125 Z M 19.8125 -36.953125 "/></g></g></g><g fill="#ffffff" fill-opacity="1"><g transform="translate(368.957803, 136.335598)"><g><path d="M 40.53125 -16.234375 L 14.484375 -16.234375 C 14.484375 -13.710938 15.300781 -11.84375 16.9375 -10.625 C 18.570312 -9.414062 20.347656 -8.8125 22.265625 -8.8125 C 24.265625 -8.8125 25.847656 -9.082031 27.015625 -9.625 C 28.179688 -10.164062 29.515625 -11.226562 31.015625 -12.8125 L 39.96875 -8.328125 C 36.238281 -2.078125 30.03125 1.046875 21.34375 1.046875 C 15.9375 1.046875 11.296875 -0.804688 7.421875 -4.515625 C 3.546875 -8.222656 1.609375 -12.691406 1.609375 -17.921875 C 1.609375 -23.148438 3.546875 -27.628906 7.421875 -31.359375 C 11.296875 -35.085938 15.9375 -36.953125 21.34375 -36.953125 C 27.039062 -36.953125 31.671875 -35.304688 35.234375 -32.015625 C 38.804688 -28.734375 40.59375 -24.035156 40.59375 -17.921875 C 40.59375 -17.078125 40.570312 -16.515625 40.53125 -16.234375 Z M 14.84375 -23.09375 L 28.484375 -23.09375 C 28.203125 -24.96875 27.46875 -26.40625 26.28125 -27.40625 C 25.09375 -28.40625 23.566406 -28.90625 21.703125 -28.90625 C 19.648438 -28.90625 18.015625 -28.367188 16.796875 -27.296875 C 15.585938 -26.222656 14.9375 -24.820312 14.84375 -23.09375 Z M 14.84375 -23.09375 "/></g></g></g><g fill="#ffffff" fill-opacity="1"><g transform="translate(37.499998, 136.335598)"><g><path d="M 41.15625 -31.421875 C 44.519531 -27.742188 46.203125 -23.242188 46.203125 -17.921875 C 46.203125 -12.597656 44.519531 -8.101562 41.15625 -4.4375 C 37.800781 -0.78125 33.53125 1.046875 28.34375 1.046875 C 23.582031 1.046875 19.664062 -0.65625 16.59375 -4.0625 L 16.453125 -4.0625 L 16.453125 0 L 4.203125 0 L 4.203125 -60.203125 L 16.59375 -60.203125 L 16.59375 -32.484375 C 19.664062 -35.460938 23.582031 -36.953125 28.34375 -36.953125 C 33.53125 -36.953125 37.800781 -35.109375 41.15625 -31.421875 Z M 30.734375 -11.859375 C 32.273438 -13.421875 33.046875 -15.4375 33.046875 -17.90625 C 33.046875 -20.382812 32.238281 -22.414062 30.625 -24 C 29.007812 -25.59375 27.015625 -26.390625 24.640625 -26.390625 C 22.304688 -26.390625 20.332031 -25.59375 18.71875 -24 C 17.113281 -22.414062 16.3125 -20.390625 16.3125 -17.921875 C 16.3125 -15.492188 17.09375 -13.484375 18.65625 -11.890625 C 20.21875 -10.304688 22.210938 -9.515625 24.640625 -9.515625 C 27.160156 -9.515625 29.191406 -10.296875 30.734375 -11.859375 Z M 30.734375 -11.859375 "/></g></g></g><g fill="#ffffff" fill-opacity="1"><g transform="translate(85.30242, 136.335598)"><g><path d="M 31.4375 -35.90625 L 45.703125 -35.90625 L 17.5 18.203125 L 3.21875 18.203125 L 15.609375 -5.59375 L -1.40625 -35.90625 L 12.875 -35.90625 L 22.890625 -17.5 Z M 31.4375 -35.90625 "/></g></g></g><g fill="#ffffff" fill-opacity="1"><g transform="translate(129.605387, 136.335598)"><g><path d="M 6.296875 -35.90625 L 6.296875 -49.28125 L 18.6875 -49.28125 L 18.6875 -35.90625 L 26.25 -35.90625 L 26.25 -26.453125 L 18.6875 -26.453125 L 18.6875 -15.046875 C 18.6875 -11.734375 19.617188 -10.078125 21.484375 -10.078125 C 21.953125 -10.078125 22.441406 -10.171875 22.953125 -10.359375 C 23.472656 -10.546875 23.875 -10.734375 24.15625 -10.921875 L 24.5625 -11.203125 L 27.65625 -1.1875 C 24.988281 0.300781 21.953125 1.046875 18.546875 1.046875 C 16.210938 1.046875 14.207031 0.640625 12.53125 -0.171875 C 10.851562 -0.992188 9.582031 -2.09375 8.71875 -3.46875 C 7.851562 -4.84375 7.234375 -6.285156 6.859375 -7.796875 C 6.484375 -9.316406 6.296875 -10.941406 6.296875 -12.671875 L 6.296875 -26.453125 L 1.125 -26.453125 L 1.125 -35.90625 Z M 6.296875 -35.90625 "/></g></g></g><g fill="#ffffff" fill-opacity="1"><g transform="translate(157.250997, 136.335598)"><g><path d="M 40.53125 -16.234375 L 14.484375 -16.234375 C 14.484375 -13.710938 15.300781 -11.84375 16.9375 -10.625 C 18.570312 -9.414062 20.347656 -8.8125 22.265625 -8.8125 C 24.265625 -8.8125 25.847656 -9.082031 27.015625 -9.625 C 28.179688 -10.164062 29.515625 -11.226562 31.015625 -12.8125 L 39.96875 -8.328125 C 36.238281 -2.078125 30.03125 1.046875 21.34375 1.046875 C 15.9375 1.046875 11.296875 -0.804688 7.421875 -4.515625 C 3.546875 -8.222656 1.609375 -12.691406 1.609375 -17.921875 C 1.609375 -23.148438 3.546875 -27.628906 7.421875 -31.359375 C 11.296875 -35.085938 15.9375 -36.953125 21.34375 -36.953125 C 27.039062 -36.953125 31.671875 -35.304688 35.234375 -32.015625 C 38.804688 -28.734375 40.59375 -24.035156 40.59375 -17.921875 C 40.59375 -17.078125 40.570312 -16.515625 40.53125 -16.234375 Z M 14.84375 -23.09375 L 28.484375 -23.09375 C 28.203125 -24.96875 27.46875 -26.40625 26.28125 -27.40625 C 25.09375 -28.40625 23.566406 -28.90625 21.703125 -28.90625 C 19.648438 -28.90625 18.015625 -28.367188 16.796875 -27.296875 C 15.585938 -26.222656 14.9375 -24.820312 14.84375 -23.09375 Z M 14.84375 -23.09375 "/></g></g></g><g fill="#ffffff" fill-opacity="1"><g transform="translate(199.453534, 136.335598)"><g/></g></g><g fill="#ffffff" fill-opacity="1"><g transform="translate(218.56051, 136.335598)"><g/></g></g><g fill="#ffffff" fill-opacity="1"><g transform="translate(237.667486, 136.335598)"><g/></g></g></svg>