<svg xmlns="http://www.w3.org/2000/svg" xmlns:xlink="http://www.w3.org/1999/xlink" width="500" zoomAndPan="magnify" viewBox="0 0 375 203.999996" height="272" preserveAspectRatio="xMidYMid meet" version="1.0"><defs><g/></defs><g fill="#faf6f5" fill-opacity="1"><g transform="translate(160.552933, 128.707446)"><g><path d="M 60.46875 -75.71875 L 0 -75.71875 L 30.289062 3.136719 Z M 30.289062 -30.9375 L 18.605469 -63.171875 L 41.863281 -63.171875 Z M 30.289062 -30.9375 "/></g></g></g><g fill="#ffffff" fill-opacity="1"><g transform="translate(213.472375, 116.268465)"><g><path d="M 32.421875 -12.984375 L 11.59375 -12.984375 C 11.59375 -10.972656 12.242188 -9.484375 13.546875 -8.515625 C 14.859375 -7.546875 16.28125 -7.0625 17.8125 -7.0625 C 19.414062 -7.0625 20.679688 -7.273438 21.609375 -7.703125 C 22.546875 -8.128906 23.613281 -8.976562 24.8125 -10.25 L 31.96875 -6.65625 C 28.988281 -1.65625 24.023438 0.84375 17.078125 0.84375 C 12.742188 0.84375 9.023438 -0.640625 5.921875 -3.609375 C 2.828125 -6.578125 1.28125 -10.148438 1.28125 -14.328125 C 1.28125 -18.515625 2.828125 -22.097656 5.921875 -25.078125 C 9.023438 -28.066406 12.742188 -29.5625 17.078125 -29.5625 C 21.628906 -29.5625 25.332031 -28.242188 28.1875 -25.609375 C 31.050781 -22.984375 32.484375 -19.226562 32.484375 -14.34375 C 32.484375 -13.664062 32.460938 -13.210938 32.421875 -12.984375 Z M 11.875 -18.484375 L 22.796875 -18.484375 C 22.566406 -19.972656 21.972656 -21.117188 21.015625 -21.921875 C 20.066406 -22.722656 18.847656 -23.125 17.359375 -23.125 C 15.710938 -23.125 14.40625 -22.691406 13.4375 -21.828125 C 12.46875 -20.972656 11.945312 -19.859375 11.875 -18.484375 Z M 11.875 -18.484375 "/></g></g></g><g fill="#ffffff" fill-opacity="1"><g transform="translate(247.235023, 116.268465)"><g><path d="M 3.359375 0 L 3.359375 -28.734375 L 13.265625 -28.734375 L 13.265625 -24.578125 L 13.390625 -24.578125 C 13.460938 -24.734375 13.582031 -24.921875 13.75 -25.140625 C 13.914062 -25.367188 14.28125 -25.757812 14.84375 -26.3125 C 15.40625 -26.875 16 -27.378906 16.625 -27.828125 C 17.257812 -28.273438 18.082031 -28.675781 19.09375 -29.03125 C 20.101562 -29.382812 21.128906 -29.5625 22.171875 -29.5625 C 23.253906 -29.5625 24.316406 -29.410156 25.359375 -29.109375 C 26.410156 -28.816406 27.175781 -28.519531 27.65625 -28.21875 L 28.453125 -27.78125 L 24.296875 -19.375 C 23.066406 -20.414062 21.351562 -20.9375 19.15625 -20.9375 C 17.957031 -20.9375 16.925781 -20.675781 16.0625 -20.15625 C 15.207031 -19.632812 14.601562 -19 14.25 -18.25 C 13.894531 -17.507812 13.640625 -16.875 13.484375 -16.34375 C 13.335938 -15.820312 13.265625 -15.414062 13.265625 -15.125 L 13.265625 0 Z M 3.359375 0 "/></g></g></g><g fill="#ffffff" fill-opacity="1"><g transform="translate(275.118605, 116.268465)"><g><path d="M 15.84375 -29.5625 C 17.488281 -29.5625 19.113281 -29.375 20.71875 -29 C 22.320312 -28.632812 23.515625 -28.265625 24.296875 -27.890625 L 25.484375 -27.328125 L 22.234375 -20.828125 C 19.992188 -22.023438 17.863281 -22.625 15.84375 -22.625 C 14.726562 -22.625 13.9375 -22.5 13.46875 -22.25 C 13 -22.007812 12.765625 -21.554688 12.765625 -20.890625 C 12.765625 -20.734375 12.78125 -20.582031 12.8125 -20.4375 C 12.851562 -20.289062 12.929688 -20.148438 13.046875 -20.015625 C 13.160156 -19.890625 13.265625 -19.78125 13.359375 -19.6875 C 13.453125 -19.59375 13.609375 -19.488281 13.828125 -19.375 C 14.054688 -19.257812 14.234375 -19.175781 14.359375 -19.125 C 14.492188 -19.070312 14.707031 -18.988281 15 -18.875 C 15.300781 -18.757812 15.523438 -18.671875 15.671875 -18.609375 C 15.828125 -18.554688 16.082031 -18.472656 16.4375 -18.359375 C 16.789062 -18.253906 17.0625 -18.179688 17.25 -18.140625 C 18.40625 -17.804688 19.410156 -17.429688 20.265625 -17.015625 C 21.128906 -16.609375 22.035156 -16.050781 22.984375 -15.34375 C 23.941406 -14.632812 24.679688 -13.738281 25.203125 -12.65625 C 25.722656 -11.570312 25.984375 -10.335938 25.984375 -8.953125 C 25.984375 -2.421875 21.445312 0.84375 12.375 0.84375 C 10.320312 0.84375 8.367188 0.523438 6.515625 -0.109375 C 4.671875 -0.742188 3.335938 -1.378906 2.515625 -2.015625 L 1.28125 -3.03125 L 5.3125 -9.796875 C 5.613281 -9.535156 6.003906 -9.226562 6.484375 -8.875 C 6.972656 -8.519531 7.851562 -8.035156 9.125 -7.421875 C 10.394531 -6.804688 11.5 -6.5 12.4375 -6.5 C 14.488281 -6.5 15.515625 -7.1875 15.515625 -8.5625 C 15.515625 -9.195312 15.25 -9.691406 14.71875 -10.046875 C 14.195312 -10.398438 13.3125 -10.800781 12.0625 -11.25 C 10.8125 -11.695312 9.832031 -12.109375 9.125 -12.484375 C 7.332031 -13.421875 5.910156 -14.476562 4.859375 -15.65625 C 3.816406 -16.832031 3.296875 -18.390625 3.296875 -20.328125 C 3.296875 -23.242188 4.425781 -25.507812 6.6875 -27.125 C 8.945312 -28.75 12 -29.5625 15.84375 -29.5625 Z M 15.84375 -29.5625 "/></g></g></g><g fill="#ffffff" fill-opacity="1"><g transform="translate(302.666231, 116.268465)"><g><path d="M 32.421875 -12.984375 L 11.59375 -12.984375 C 11.59375 -10.972656 12.242188 -9.484375 13.546875 -8.515625 C 14.859375 -7.546875 16.28125 -7.0625 17.8125 -7.0625 C 19.414062 -7.0625 20.679688 -7.273438 21.609375 -7.703125 C 22.546875 -8.128906 23.613281 -8.976562 24.8125 -10.25 L 31.96875 -6.65625 C 28.988281 -1.65625 24.023438 0.84375 17.078125 0.84375 C 12.742188 0.84375 9.023438 -0.640625 5.921875 -3.609375 C 2.828125 -6.578125 1.28125 -10.148438 1.28125 -14.328125 C 1.28125 -18.515625 2.828125 -22.097656 5.921875 -25.078125 C 9.023438 -28.066406 12.742188 -29.5625 17.078125 -29.5625 C 21.628906 -29.5625 25.332031 -28.242188 28.1875 -25.609375 C 31.050781 -22.984375 32.484375 -19.226562 32.484375 -14.34375 C 32.484375 -13.664062 32.460938 -13.210938 32.421875 -12.984375 Z M 11.875 -18.484375 L 22.796875 -18.484375 C 22.566406 -19.972656 21.972656 -21.117188 21.015625 -21.921875 C 20.066406 -22.722656 18.847656 -23.125 17.359375 -23.125 C 15.710938 -23.125 14.40625 -22.691406 13.4375 -21.828125 C 12.46875 -20.972656 11.945312 -19.859375 11.875 -18.484375 Z M 11.875 -18.484375 "/></g></g></g><g fill="#ffffff" fill-opacity="1"><g transform="translate(37.500002, 116.268465)"><g><path d="M 32.921875 -25.140625 C 35.609375 -22.191406 36.953125 -18.585938 36.953125 -14.328125 C 36.953125 -10.078125 35.609375 -6.484375 32.921875 -3.546875 C 30.234375 -0.617188 26.820312 0.84375 22.6875 0.84375 C 18.875 0.84375 15.734375 -0.519531 13.265625 -3.25 L 13.15625 -3.25 L 13.15625 0 L 3.359375 0 L 3.359375 -48.15625 L 13.265625 -48.15625 L 13.265625 -25.984375 C 15.734375 -28.367188 18.875 -29.5625 22.6875 -29.5625 C 26.820312 -29.5625 30.234375 -28.085938 32.921875 -25.140625 Z M 24.578125 -9.484375 C 25.816406 -10.742188 26.4375 -12.359375 26.4375 -14.328125 C 26.4375 -16.304688 25.789062 -17.929688 24.5 -19.203125 C 23.207031 -20.472656 21.613281 -21.109375 19.71875 -21.109375 C 17.84375 -21.109375 16.257812 -20.472656 14.96875 -19.203125 C 13.6875 -17.929688 13.046875 -16.3125 13.046875 -14.34375 C 13.046875 -12.394531 13.671875 -10.785156 14.921875 -9.515625 C 16.171875 -8.242188 17.769531 -7.609375 19.71875 -7.609375 C 21.726562 -7.609375 23.347656 -8.234375 24.578125 -9.484375 Z M 24.578125 -9.484375 "/></g></g></g><g fill="#ffffff" fill-opacity="1"><g transform="translate(75.741936, 116.268465)"><g><path d="M 25.140625 -28.734375 L 36.5625 -28.734375 L 14 14.5625 L 2.578125 14.5625 L 12.484375 -4.484375 L -1.125 -28.734375 L 10.296875 -28.734375 L 18.3125 -14 Z M 25.140625 -28.734375 "/></g></g></g><g fill="#ffffff" fill-opacity="1"><g transform="translate(111.184307, 116.268465)"><g><path d="M 5.046875 -28.734375 L 5.046875 -39.421875 L 14.953125 -39.421875 L 14.953125 -28.734375 L 21 -28.734375 L 21 -21.171875 L 14.953125 -21.171875 L 14.953125 -12.046875 C 14.953125 -9.390625 15.695312 -8.0625 17.1875 -8.0625 C 17.5625 -8.0625 17.953125 -8.132812 18.359375 -8.28125 C 18.773438 -8.4375 19.09375 -8.585938 19.3125 -8.734375 L 19.65625 -8.953125 L 22.125 -0.953125 C 19.988281 0.242188 17.5625 0.84375 14.84375 0.84375 C 12.976562 0.84375 11.375 0.515625 10.03125 -0.140625 C 8.6875 -0.796875 7.664062 -1.671875 6.96875 -2.765625 C 6.28125 -3.867188 5.785156 -5.023438 5.484375 -6.234375 C 5.191406 -7.453125 5.046875 -8.753906 5.046875 -10.140625 L 5.046875 -21.171875 L 0.890625 -21.171875 L 0.890625 -28.734375 Z M 5.046875 -28.734375 "/></g></g></g><g fill="#ffffff" fill-opacity="1"><g transform="translate(133.300793, 116.268465)"><g><path d="M 32.421875 -12.984375 L 11.59375 -12.984375 C 11.59375 -10.972656 12.242188 -9.484375 13.546875 -8.515625 C 14.859375 -7.546875 16.28125 -7.0625 17.8125 -7.0625 C 19.414062 -7.0625 20.679688 -7.273438 21.609375 -7.703125 C 22.546875 -8.128906 23.613281 -8.976562 24.8125 -10.25 L 31.96875 -6.65625 C 28.988281 -1.65625 24.023438 0.84375 17.078125 0.84375 C 12.742188 0.84375 9.023438 -0.640625 5.921875 -3.609375 C 2.828125 -6.578125 1.28125 -10.148438 1.28125 -14.328125 C 1.28125 -18.515625 2.828125 -22.097656 5.921875 -25.078125 C 9.023438 -28.066406 12.742188 -29.5625 17.078125 -29.5625 C 21.628906 -29.5625 25.332031 -28.242188 28.1875 -25.609375 C 31.050781 -22.984375 32.484375 -19.226562 32.484375 -14.34375 C 32.484375 -13.664062 32.460938 -13.210938 32.421875 -12.984375 Z M 11.875 -18.484375 L 22.796875 -18.484375 C 22.566406 -19.972656 21.972656 -21.117188 21.015625 -21.921875 C 20.066406 -22.722656 18.847656 -23.125 17.359375 -23.125 C 15.710938 -23.125 14.40625 -22.691406 13.4375 -21.828125 C 12.46875 -20.972656 11.945312 -19.859375 11.875 -18.484375 Z M 11.875 -18.484375 "/></g></g></g><g fill="#ffffff" fill-opacity="1"><g transform="translate(167.06282, 116.268465)"><g/></g></g><g fill="#ffffff" fill-opacity="1"><g transform="translate(182.3484, 116.268465)"><g/></g></g><g fill="#ffffff" fill-opacity="1"><g transform="translate(197.633979, 116.268465)"><g/></g></g></svg>